<?xml version="1.0" standalone="no"?>
<!DOCTYPE svg PUBLIC "-//W3C//DTD SVG 20010904//EN"
 "http://www.w3.org/TR/2001/REC-SVG-20010904/DTD/svg10.dtd">
<svg version="1.0" xmlns="http://www.w3.org/2000/svg"
 width="2041.000000pt" height="2041.000000pt" viewBox="0 0 2041.000000 2041.000000"
 preserveAspectRatio="xMidYMid meet">
<metadata>
Created by potrace 1.11, written by Peter Selinger 2001-2013
</metadata>
<g transform="translate(0.000000,2041.000000) scale(0.100000,-0.100000)"
fill="#000000" stroke="none">
<path d="M6050 14993 c0 -7 -6 -11 -12 -9 -7 1 -10 1 -5 -1 4 -3 5 -9 1 -14
-3 -5 -1 -9 5 -9 5 0 12 6 15 13 4 6 4 2 2 -10 -2 -13 0 -23 5 -23 5 0 9 -5 9
-11 0 -5 -6 -7 -12 -3 -9 5 -9 3 1 -9 7 -9 17 -14 22 -11 5 3 9 -3 9 -13 0
-15 2 -16 10 -3 8 13 10 12 11 -5 1 -11 1 -23 0 -27 0 -4 6 -5 15 -1 10 4 17
-2 21 -16 4 -16 9 -19 18 -11 11 9 12 6 9 -12 -2 -13 -2 -18 2 -11 4 10 8 10
19 0 9 -9 10 -14 1 -19 -6 -5 -2 -8 12 -8 15 0 22 -6 22 -20 0 -11 5 -20 11
-20 5 0 7 5 3 12 -4 7 -3 8 4 4 6 -4 8 -14 5 -23 -4 -11 -3 -14 5 -9 7 4 12 2
12 -4 0 -6 5 -8 12 -4 7 5 9 2 5 -9 -4 -12 -2 -14 10 -10 11 4 14 2 9 -5 -5
-8 0 -12 13 -12 19 0 144 -110 125 -110 -5 -1 2 -8 16 -16 18 -11 19 -14 5 -9
-14 4 -9 -4 15 -26 19 -18 27 -29 18 -26 -10 4 -18 2 -18 -3 0 -6 7 -10 15
-10 15 0 21 -25 8 -33 -5 -2 -3 -2 4 -1 12 3 35 -50 26 -60 -4 -3 -2 -6 4 -6
6 0 14 -7 17 -16 6 -15 4 -15 -11 -3 -16 12 -16 11 0 -8 11 -12 16 -27 11 -34
-4 -8 -3 -10 4 -5 8 5 12 0 12 -13 0 -12 5 -21 10 -21 6 0 10 -10 10 -23 0
-13 6 -29 13 -36 10 -11 9 -12 -3 -6 -13 8 -13 6 -2 -8 8 -9 10 -22 6 -28 -4
-7 -3 -9 4 -5 7 4 13 -7 18 -29 3 -19 10 -35 15 -35 5 0 6 -7 3 -15 -4 -9 0
-15 7 -15 11 0 11 -3 -1 -10 -13 -8 -12 -10 4 -10 15 0 16 -3 6 -15 -9 -10 -9
-15 -1 -15 6 0 11 -7 11 -16 0 -9 8 -23 18 -31 9 -8 12 -12 6 -9 -7 3 -14 -1
-17 -9 -4 -9 -1 -12 7 -9 11 4 38 -35 41 -61 3 -18 28 -65 35 -65 4 0 10 -9
13 -19 3 -15 1 -18 -12 -14 -15 4 -15 3 0 -9 9 -7 14 -19 11 -27 -3 -8 0 -11
6 -7 12 7 11 -12 -2 -33 -7 -11 -5 -13 8 -8 9 4 14 3 11 -2 -3 -5 -1 -13 5
-16 8 -5 8 -11 0 -20 -8 -10 -8 -15 1 -21 8 -5 9 -3 4 6 -5 9 -4 11 3 6 9 -5
9 -13 2 -27 -6 -10 -7 -19 -3 -18 21 3 24 -2 12 -18 -10 -11 -10 -14 -1 -9 11
6 17 -5 13 -26 0 -5 3 -8 7 -8 5 0 14 -12 20 -26 7 -14 8 -23 2 -19 -17 10
-11 -7 8 -22 9 -8 12 -12 6 -9 -6 3 -11 -1 -11 -8 0 -9 7 -12 16 -8 14 5 14 3
2 -11 -12 -15 -11 -17 3 -17 13 0 15 -6 10 -26 -5 -19 -3 -25 4 -20 8 5 10 1
5 -10 -5 -12 -3 -15 6 -9 10 6 11 3 1 -15 -10 -20 -10 -22 3 -17 15 6 17 -8 4
-30 -5 -8 -1 -11 11 -8 11 2 19 -3 19 -10 0 -8 -4 -12 -9 -9 -15 10 -8 -9 10
-23 9 -8 12 -12 5 -9 -6 4 -14 2 -18 -4 -3 -5 1 -10 9 -10 8 0 18 -5 22 -12 5
-7 2 -9 -7 -4 -8 4 -5 -1 7 -11 11 -10 18 -25 16 -32 -3 -8 0 -11 7 -7 7 5 9
1 4 -10 -5 -13 -3 -15 8 -9 8 4 11 4 6 0 -4 -5 1 -18 10 -29 17 -20 17 -20 1
-7 -23 18 -23 10 1 -17 10 -12 22 -18 27 -14 4 4 2 -2 -6 -12 -10 -13 -10 -17
-2 -12 8 5 12 0 12 -14 0 -12 5 -18 10 -15 6 3 10 -3 10 -14 0 -11 8 -25 18
-31 15 -10 15 -11 -3 -5 -17 5 -17 3 5 -21 14 -15 20 -24 13 -21 -18 11 -9
-24 10 -38 18 -13 24 -30 7 -20 -6 3 -7 -1 -4 -9 3 -9 11 -13 16 -9 7 4 9 -4
6 -20 -3 -15 -1 -24 3 -21 5 3 9 -2 9 -10 0 -9 4 -16 8 -16 4 0 9 -12 10 -26
1 -15 7 -33 13 -40 6 -7 8 -18 4 -24 -4 -6 -3 -10 2 -9 20 4 24 -2 12 -18 -10
-11 -10 -14 -1 -9 11 6 17 -5 13 -26 0 -5 4 -8 10 -8 5 0 8 -4 4 -9 -3 -6 3
-14 12 -20 10 -6 13 -11 5 -11 -15 0 11 -46 42 -73 21 -17 21 -17 1 -12 -15 4
-15 3 3 -7 15 -7 22 -18 19 -29 -3 -12 0 -16 10 -12 10 4 13 -1 9 -22 -4 -24
-3 -25 11 -13 12 9 15 9 9 1 -4 -7 -3 -13 2 -13 5 0 8 -11 7 -25 -3 -24 -3
-24 23 -9 20 12 23 12 10 1 -22 -17 -23 -31 -3 -47 8 -7 12 -17 8 -23 -4 -6
-1 -7 6 -3 9 6 8 13 -5 27 -22 25 -13 24 16 -1 13 -11 18 -20 12 -20 -7 0 -12
-5 -12 -11 0 -6 9 -9 20 -6 10 3 19 2 18 -2 -3 -23 4 -41 15 -39 6 2 11 -3 9
-9 -2 -12 10 -17 31 -14 4 0 7 -6 7 -15 0 -8 -4 -12 -10 -9 -5 3 -10 1 -10 -4
0 -14 17 -14 25 -1 4 6 12 4 21 -5 9 -8 20 -12 26 -9 7 4 8 2 4 -5 -4 -6 -11
-9 -15 -7 -4 3 -8 -1 -8 -9 0 -8 4 -12 8 -10 10 7 30 -21 21 -30 -4 -5 -1 -5
6 0 10 5 11 10 3 18 -6 6 -11 16 -11 21 0 6 7 0 16 -12 8 -12 12 -27 9 -32 -3
-6 -1 -10 4 -10 6 0 11 6 11 13 0 6 5 4 11 -6 6 -9 14 -15 19 -12 4 3 6 -5 3
-17 -3 -16 -2 -19 4 -10 7 9 12 6 21 -13 7 -14 18 -25 24 -23 7 2 13 -2 13 -7
0 -6 -3 -9 -7 -7 -5 1 -8 -2 -8 -8 0 -5 9 -10 19 -10 11 0 23 -5 27 -12 5 -7
2 -9 -7 -3 -8 4 1 -6 20 -23 18 -16 31 -34 28 -39 -3 -5 0 -10 8 -10 8 0 12 5
9 11 -3 6 0 4 8 -5 7 -8 25 -24 41 -33 15 -10 27 -25 27 -33 0 -8 4 -12 9 -9
5 3 11 -1 15 -9 3 -8 12 -15 21 -15 8 0 15 -5 15 -11 0 -5 -6 -7 -12 -3 -9 5
-8 2 1 -9 11 -13 17 -15 28 -6 11 10 12 9 7 -5 -6 -14 5 -21 28 -17 4 0 5 -5
2 -13 -3 -7 2 -20 10 -29 19 -19 21 -31 4 -22 -7 4 -2 -3 11 -14 13 -12 21
-27 17 -36 -3 -8 -2 -14 2 -14 21 3 31 -3 26 -16 -4 -8 -2 -15 3 -15 5 0 9
-10 10 -22 1 -11 6 -24 11 -27 9 -6 27 -60 24 -73 -1 -5 3 -8 8 -8 7 0 7 -6 0
-20 -9 -16 -8 -18 5 -14 9 4 15 3 14 -2 -4 -25 2 -75 9 -70 11 6 9 -36 -2 -53
-7 -10 -6 -12 4 -6 10 6 12 3 8 -13 -4 -12 -1 -20 4 -19 6 1 13 -4 16 -12 3
-10 0 -11 -9 -5 -11 6 -10 3 1 -11 8 -10 14 -26 12 -37 -2 -10 2 -18 9 -18 8
0 7 -5 -2 -17 -10 -11 -10 -14 -1 -9 12 7 16 -4 13 -31 -1 -7 2 -13 7 -13 6 0
9 -60 8 -139 0 -81 3 -137 8 -133 5 3 6 -9 3 -27 -5 -22 -3 -30 4 -25 7 4 10
1 7 -7 -3 -8 3 -25 14 -38 15 -19 16 -27 6 -39 -8 -10 -9 -13 -2 -9 7 4 15 0
18 -9 4 -10 2 -13 -6 -8 -7 4 -2 -7 11 -24 12 -18 27 -29 33 -26 7 4 8 2 4 -5
-4 -6 -11 -9 -16 -6 -5 3 -12 1 -15 -5 -4 -6 -1 -9 7 -8 7 2 12 -3 10 -11 -3
-12 -1 -12 14 0 10 8 15 9 11 2 -4 -6 -2 -15 4 -18 5 -4 8 -13 5 -21 -3 -8 -1
-14 4 -14 5 0 7 -7 4 -15 -4 -8 -1 -15 6 -15 6 0 8 -4 5 -10 -3 -5 -1 -19 5
-30 8 -15 8 -20 -2 -20 -6 0 -3 -7 8 -15 14 -11 16 -15 4 -15 -13 -1 -13 -2 0
-10 10 -5 15 -22 15 -44 -1 -20 2 -36 7 -36 4 0 8 -7 8 -16 0 -9 5 -12 12 -8
7 4 8 3 4 -4 -8 -14 11 -55 23 -48 4 3 8 -1 8 -8 0 -8 -5 -13 -11 -12 -6 2 -8
1 -3 -1 4 -3 4 -9 1 -15 -3 -5 3 -12 15 -15 17 -4 19 -9 10 -25 -9 -16 -8 -19
2 -13 9 6 11 3 6 -8 -3 -10 -3 -17 2 -17 15 0 3 -51 -16 -67 -10 -8 -13 -12
-6 -9 6 4 15 1 19 -5 4 -7 3 -9 -3 -6 -6 4 -14 0 -17 -9 -5 -14 -9 -14 -23 -3
-9 8 -14 9 -10 3 4 -7 0 -14 -7 -17 -8 -3 -17 -1 -20 6 -2 7 -5 4 -5 -6 -1
-10 -5 -16 -10 -12 -5 3 -12 1 -16 -4 -3 -6 -13 -7 -22 -4 -10 4 -14 2 -10 -4
4 -6 0 -14 -9 -17 -8 -3 -12 -2 -9 4 3 5 -7 3 -21 -5 -15 -8 -31 -12 -36 -9
-4 3 -8 0 -8 -6 0 -7 7 -10 18 -6 14 5 14 4 -2 -9 -15 -11 -23 -12 -33 -3 -11
8 -12 7 -7 -5 4 -12 1 -15 -16 -12 -19 4 -20 2 -8 -12 9 -12 9 -15 1 -9 -8 4
-13 2 -13 -4 0 -7 -7 -9 -16 -6 -15 6 -15 4 -3 -11 7 -10 10 -15 6 -12 -15 12
-58 -41 -52 -62 4 -11 2 -19 -5 -19 -6 0 -8 5 -5 10 9 15 -4 12 -20 -4 -11
-10 -11 -16 -2 -25 9 -10 9 -12 0 -9 -6 2 -19 -6 -27 -17 -9 -11 -16 -14 -16
-7 0 6 -5 12 -11 12 -5 0 -7 -4 -4 -10 3 -6 -4 -9 -19 -8 -13 1 -22 7 -19 12
4 5 -1 7 -10 3 -10 -3 -17 -2 -17 2 0 5 6 11 13 14 6 2 -4 4 -23 5 -19 0 -51
3 -70 5 -19 2 -41 -1 -47 -6 -9 -6 -13 -5 -14 4 0 8 -4 5 -8 -5 -7 -18 -19
-23 -63 -28 -9 -1 -14 -6 -11 -11 3 -4 12 -6 20 -3 8 4 11 1 8 -5 -4 -6 -14
-8 -22 -5 -11 5 -13 2 -9 -10 6 -15 4 -15 -11 -3 -15 12 -16 12 -10 -3 3 -10
1 -20 -5 -24 -7 -5 -8 -2 -3 6 6 9 4 11 -4 6 -7 -5 -10 -14 -8 -20 3 -7 -1
-13 -9 -13 -7 0 -10 5 -7 10 4 6 1 7 -6 3 -7 -5 -10 -14 -7 -22 4 -11 1 -12
-13 -5 -12 7 -21 7 -28 0 -8 -8 -13 -7 -18 2 -5 8 -4 10 3 5 8 -5 10 -2 6 8
-5 14 -8 14 -21 0 -12 -11 -18 -12 -29 -3 -8 6 -12 15 -9 19 3 4 -10 5 -28 1
-18 -5 -40 -7 -50 -5 -9 1 -17 -2 -17 -8 0 -6 -6 -5 -15 2 -14 11 -19 7 -16
-13 1 -4 -8 -3 -19 3 -23 12 -27 22 -6 14 8 -3 16 -1 20 4 3 5 -10 9 -29 9
-19 0 -35 -4 -35 -9 0 -5 6 -6 13 -2 7 4 9 3 4 -2 -9 -9 -13 -10 -43 -13 -9 0
-12 -6 -8 -13 5 -7 3 -8 -6 -3 -10 6 -7 12 10 25 17 13 20 19 10 25 -9 5 -11
4 -6 -3 6 -11 -5 -16 -26 -13 -3 0 -5 -11 -3 -25 1 -13 0 -22 -3 -19 -3 2 -12
-1 -20 -8 -13 -10 -14 -8 -8 11 8 23 7 23 -13 5 -12 -9 -21 -25 -21 -35 0 -10
-5 -18 -11 -18 -5 0 -7 -5 -3 -11 4 -8 0 -8 -15 0 -26 14 -27 8 -3 -15 16 -17
16 -18 0 -11 -10 3 -18 2 -18 -4 0 -6 -3 -8 -7 -6 -5 3 -7 -11 -7 -31 1 -21
-4 -40 -10 -44 -8 -6 -7 -8 2 -8 6 0 12 -5 12 -11 0 -6 -7 -8 -16 -5 -15 6
-15 4 -3 -11 12 -15 12 -16 -5 -10 -17 7 -17 6 -5 -9 13 -16 12 -16 -11 -4
l-25 13 19 -22 c15 -17 16 -20 4 -16 -10 4 -24 -2 -36 -15 -18 -20 -20 -20
-19 -3 2 23 -38 20 -65 -4 -11 -9 -29 -18 -41 -20 -11 -2 -25 -9 -30 -16 -6
-8 -7 -7 -4 5 3 9 -2 22 -11 30 -15 12 -16 11 -3 -4 10 -14 10 -18 1 -18 -7 0
-10 -6 -7 -14 4 -10 0 -12 -14 -9 -12 3 -19 0 -19 -8 0 -11 -2 -11 -10 1 -8
13 -10 13 -10 -2 0 -11 -5 -15 -14 -12 -8 3 -17 0 -22 -7 -5 -8 -3 -10 7 -4
12 7 12 6 1 -7 -6 -8 -23 -14 -37 -13 -22 3 -24 1 -13 -18 10 -20 10 -21 -5
-8 -16 12 -21 9 -18 -11 0 -5 -6 -8 -14 -8 -8 0 -15 -6 -15 -12 0 -9 -4 -8
-10 2 -8 13 -10 12 -11 -5 -1 -11 -1 -23 -1 -26 1 -3 -6 -6 -13 -6 -12 0 -12
3 -3 16 8 10 4 9 -9 -3 -13 -10 -20 -22 -18 -26 3 -4 -2 -13 -10 -20 -13 -10
-15 -10 -12 1 2 8 2 11 0 6 -3 -4 -9 -4 -15 -1 -6 4 -6 -1 1 -13 9 -18 7 -20
-15 -17 -19 2 -24 -1 -20 -12 3 -7 1 -13 -4 -11 -5 1 -16 -7 -25 -18 -9 -11
-14 -15 -11 -9 3 6 -2 11 -10 11 -8 0 -13 -6 -10 -13 3 -7 -8 -17 -24 -24 -16
-6 -31 -19 -34 -27 -4 -9 -13 -13 -24 -9 -14 5 -13 3 3 -10 l20 -16 -20 4
c-12 2 -19 -2 -17 -10 1 -8 -2 -11 -8 -7 -5 3 -10 1 -10 -6 0 -7 -3 -10 -6 -6
-8 7 -33 -16 -28 -25 2 -4 -1 -10 -7 -14 -7 -4 -9 -3 -6 3 4 6 0 13 -8 16 -9
4 -12 1 -8 -9 3 -9 0 -14 -8 -12 -7 2 -13 -3 -14 -11 0 -8 -6 -16 -14 -19 -9
-3 -11 0 -6 8 5 9 4 11 -4 6 -6 -4 -10 -10 -8 -14 1 -4 -11 -20 -27 -37 -16
-16 -26 -23 -21 -15 8 13 7 13 -9 1 -9 -8 -15 -20 -12 -28 5 -11 1 -11 -15 -2
-16 8 -20 8 -14 -1 4 -7 -1 -14 -15 -17 -16 -4 -18 -8 -8 -14 10 -7 9 -9 -4
-9 -10 0 -18 -4 -18 -10 0 -5 -8 -10 -17 -10 -15 0 -16 -2 -3 -10 10 -6 11
-10 3 -10 -19 0 -53 -32 -53 -50 0 -13 -1 -13 -10 0 -8 13 -10 12 -10 -2 0
-10 -6 -17 -12 -15 -7 1 -12 -4 -10 -12 2 -8 -3 -11 -11 -8 -7 2 -21 -1 -31
-8 -14 -11 -15 -17 -6 -34 9 -17 8 -21 -5 -21 -9 0 -13 5 -10 10 10 16 -1 11
-16 -7 -8 -10 -9 -14 -2 -10 17 10 28 -12 13 -26 -10 -9 -11 -9 -5 3 6 12 5
13 -5 3 -11 -10 -11 -15 1 -30 13 -16 12 -17 -3 -4 -10 7 -18 19 -18 27 0 7
-5 16 -11 19 -5 4 -3 -10 5 -30 15 -35 15 -37 -1 -24 -9 8 -14 9 -10 3 4 -7
-3 -23 -14 -38 -25 -32 -15 -35 12 -3 10 12 18 16 19 10 0 -7 -5 -13 -11 -13
-6 0 -9 -7 -5 -15 3 -8 2 -14 -2 -14 -4 1 -16 1 -27 0 -17 -1 -18 -3 -5 -11
14 -9 7 -14 -15 -11 -5 1 -3 -4 6 -11 15 -12 15 -15 1 -28 -14 -13 -15 -12
-10 2 4 10 1 19 -7 22 -10 3 -12 0 -8 -11 4 -10 2 -14 -4 -10 -5 3 -10 0 -10
-8 0 -8 2 -13 5 -10 5 5 32 -20 32 -30 0 -3 -6 -3 -12 2 -21 12 -48 14 -48 2
0 -5 5 -7 10 -4 6 4 10 -5 10 -19 0 -14 6 -26 13 -26 8 0 9 -3 1 -8 -6 -4 -10
-17 -9 -29 1 -12 -2 -20 -7 -17 -4 3 -16 0 -25 -6 -17 -11 -17 -11 0 -6 9 3
17 1 17 -5 0 -6 6 -7 13 -3 10 6 10 4 0 -7 -16 -16 -17 -33 -1 -23 7 4 8 3 4
-5 -4 -6 -11 -9 -16 -6 -4 3 -10 -2 -13 -10 -4 -9 -1 -12 7 -9 19 7 15 -38 -4
-53 -13 -10 -13 -12 1 -18 17 -6 19 -31 4 -54 -5 -10 -4 -12 3 -7 7 4 12 1 12
-8 0 -8 -6 -17 -12 -19 -7 -3 -4 -6 7 -6 17 -1 17 -3 5 -11 -10 -6 -11 -10 -2
-10 6 0 12 -5 12 -11 0 -5 -6 -7 -12 -3 -7 4 -4 -2 6 -14 11 -12 16 -22 11
-22 -4 0 -2 -7 5 -16 8 -8 9 -14 4 -13 -22 4 -25 -2 -7 -18 10 -10 13 -14 6
-9 -8 5 -13 4 -13 -2 0 -6 5 -14 10 -17 6 -4 8 -11 5 -16 -3 -5 1 -6 10 -3 9
4 15 3 14 -2 -3 -12 12 -48 24 -55 5 -3 1 -9 -8 -12 -9 -4 -13 -3 -10 3 4 6
-1 7 -12 3 -16 -6 -16 -5 -5 10 15 17 9 37 -11 37 -8 0 -7 -4 2 -9 12 -8 12
-12 2 -25 -10 -12 -8 -17 11 -27 13 -7 25 -10 27 -8 2 2 5 -4 7 -14 2 -15 0
-16 -12 -6 -11 9 -16 6 -24 -15 -5 -14 -12 -26 -15 -26 -4 0 -4 4 -1 9 3 5 -1
14 -9 21 -13 11 -14 10 -9 -5 6 -14 4 -16 -7 -10 -11 7 -12 6 -2 -6 10 -12 8
-15 -8 -16 -12 -1 -17 3 -13 10 3 7 -6 -1 -21 -18 -14 -16 -24 -25 -21 -19 3
6 -1 11 -8 11 -7 0 -12 -10 -10 -23 1 -16 -2 -22 -15 -19 -11 2 -17 -4 -18
-18 -1 -12 -8 -26 -16 -32 -8 -5 -12 -16 -9 -24 3 -8 0 -11 -7 -7 -7 5 -9 1
-5 -8 3 -9 1 -16 -4 -16 -6 0 -9 -9 -7 -20 2 -11 -2 -20 -8 -20 -7 0 -6 -4 3
-10 11 -7 11 -10 2 -10 -7 0 -12 -6 -11 -12 3 -26 -1 -39 -11 -33 -6 3 -7 -1
-4 -9 3 -9 11 -13 18 -9 6 4 5 -1 -2 -10 -8 -9 -11 -21 -8 -26 4 -5 2 -12 -3
-15 -5 -4 -8 5 -7 18 2 17 -1 23 -11 19 -10 -4 -11 -9 -2 -19 6 -8 8 -14 5
-14 -4 0 -2 -9 4 -21 11 -19 10 -20 -9 -9 -26 13 -27 7 -3 -16 15 -16 15 -17
0 -12 -10 4 -19 1 -22 -8 -4 -10 -2 -12 6 -8 6 4 8 3 4 -4 -3 -5 0 -13 6 -16
7 -3 0 -3 -17 0 -22 4 -26 3 -16 -4 12 -9 12 -13 2 -26 -8 -9 -10 -16 -6 -16
4 0 1 -8 -6 -17 -8 -10 -9 -14 -2 -10 6 4 14 3 18 -3 3 -5 1 -10 -5 -10 -7 0
-10 -7 -6 -15 3 -8 1 -15 -4 -15 -5 0 -7 -16 -6 -35 3 -21 -1 -35 -8 -35 -7 0
-7 -3 -1 -8 12 -8 14 -107 2 -118 -4 -5 2 -17 15 -27 13 -10 17 -16 11 -12 -8
4 -13 0 -13 -9 0 -9 6 -16 13 -16 9 0 8 -3 -2 -9 -10 -7 -10 -10 -1 -13 9 -3
13 -24 13 -61 0 -38 3 -53 9 -45 7 9 8 7 5 -8 -3 -15 0 -21 11 -20 22 1 27
-53 6 -61 -12 -4 -10 -9 8 -22 13 -9 27 -15 31 -13 5 1 6 -2 2 -8 -3 -6 -10
-8 -15 -5 -5 3 -12 0 -16 -6 -5 -8 -3 -9 6 -4 10 6 12 4 7 -8 -3 -9 -3 -16 1
-15 13 2 42 -14 42 -24 0 -5 -4 -7 -8 -4 -5 3 -9 -1 -9 -9 0 -8 4 -12 9 -9 4
3 8 0 8 -6 0 -6 5 -8 13 -4 7 5 7 2 -2 -10 -8 -9 -10 -16 -5 -14 5 2 10 -1 12
-7 2 -5 10 -13 17 -18 8 -4 11 -15 8 -24 -5 -12 -3 -14 7 -8 10 6 12 4 7 -7
-3 -9 -1 -20 5 -26 6 -6 6 -12 -3 -17 -8 -6 -10 -4 -4 6 6 11 5 11 -5 2 -14
-13 -4 -36 13 -27 7 3 0 -6 -15 -20 -16 -14 -23 -28 -18 -31 6 -3 10 -1 10 4
0 6 8 11 18 11 10 0 13 -3 6 -8 -6 -4 -13 -15 -17 -24 -4 -13 -1 -16 16 -13
21 4 21 4 3 -10 -10 -8 -22 -13 -25 -10 -4 2 -7 -5 -7 -15 0 -10 3 -17 7 -14
4 2 14 1 23 -2 19 -7 21 -35 4 -53 -11 -11 -10 -12 1 -6 11 6 13 4 8 -9 -4
-11 -3 -15 4 -11 6 4 8 14 5 22 -3 8 -2 12 3 8 5 -3 11 0 13 7 3 7 7 5 11 -6
4 -10 3 -15 -3 -11 -6 4 -10 -5 -10 -20 0 -15 4 -24 10 -20 6 4 7 11 4 17 -4
7 -2 8 4 4 6 -4 8 -14 5 -22 -4 -10 2 -17 16 -21 11 -3 21 -13 21 -22 0 -10 7
-26 16 -37 14 -18 15 -18 4 4 -7 13 -9 26 -7 29 3 2 8 -5 12 -16 3 -11 11 -19
18 -17 7 1 9 1 5 -1 -18 -10 -6 -24 15 -18 22 7 22 7 2 -9 -20 -15 -20 -15 3
-16 12 0 22 -5 22 -11 0 -5 -4 -8 -8 -5 -5 3 -9 -1 -9 -9 0 -11 4 -12 14 -4 9
8 13 8 13 0 0 -6 9 -11 20 -11 11 0 20 -5 20 -11 0 -5 4 -8 9 -5 5 3 11 -1 15
-9 3 -8 13 -15 22 -15 14 0 15 -2 3 -17 -13 -15 -12 -15 9 -4 15 8 22 8 22 1
0 -6 4 -8 10 -5 5 3 10 0 10 -7 0 -8 7 -23 16 -34 15 -18 15 -18 5 3 -8 16 -7
22 3 26 8 3 13 -1 12 -11 -1 -11 7 -17 19 -17 14 0 20 -6 19 -21 -1 -16 4 -20
27 -18 24 2 27 -1 19 -15 -6 -13 -5 -18 5 -18 8 0 12 4 9 9 -3 4 0 8 5 8 6 0
11 -4 11 -10 0 -5 9 -10 19 -10 11 0 22 -6 24 -12 4 -9 6 -9 6 1 1 11 5 10 16
-5 15 -19 15 -19 9 1 -4 16 -2 15 9 -4 10 -17 16 -20 22 -11 6 9 11 6 21 -11
7 -13 13 -18 14 -11 0 7 13 -1 30 -18 16 -16 37 -30 47 -30 15 0 16 -2 3 -10
-12 -8 -9 -10 13 -10 15 0 27 -4 27 -10 0 -5 9 -10 21 -10 12 0 17 -4 13 -11
-4 -8 0 -9 15 -4 16 5 20 3 15 -9 -4 -12 0 -16 15 -16 15 0 21 -5 19 -17 -2
-10 3 -18 10 -19 6 -1 17 -2 23 -3 5 0 7 -5 4 -11 -3 -5 1 -10 9 -10 15 0 21
-12 17 -34 -1 -5 6 -3 15 5 12 9 15 9 10 2 -4 -7 -2 -13 4 -13 7 0 7 -7 -1
-22 -9 -19 -9 -21 2 -11 7 7 20 13 29 13 13 0 13 -1 0 -10 -13 -8 -12 -10 3
-10 10 0 15 -5 12 -10 -3 -6 -1 -10 5 -10 6 0 8 -5 4 -13 -5 -7 0 -6 11 3 17
14 18 13 13 -2 -8 -20 26 -53 47 -45 9 4 15 1 15 -7 0 -20 45 -37 60 -23 7 7
10 8 8 2 -3 -5 0 -16 8 -23 8 -7 14 -8 14 -2 0 5 5 10 11 10 6 0 9 -7 5 -15
-3 -8 -1 -15 4 -15 6 0 10 8 10 17 0 13 3 14 12 5 15 -15 31 -16 22 0 -4 7 -3
8 5 4 15 -10 3 -29 -15 -22 -8 3 -14 2 -14 -3 0 -5 9 -11 20 -14 11 -3 18 -2
15 3 -3 4 2 11 11 14 24 9 31 7 14 -5 -12 -9 -11 -10 6 -6 17 4 20 0 18 -19
-1 -13 2 -22 7 -18 5 3 6 10 3 16 -4 6 -2 8 4 4 5 -3 13 0 15 6 4 10 6 10 6 0
1 -7 5 -11 10 -8 5 4 7 -4 5 -16 -2 -13 -2 -17 2 -10 8 17 25 15 18 -3 -4 -8
-2 -15 4 -15 6 0 12 6 15 13 3 9 7 9 19 -1 12 -9 17 -10 20 -1 3 8 7 7 16 -3
9 -12 8 -14 -6 -13 -9 0 -23 4 -30 8 -8 6 -10 3 -6 -8 4 -10 13 -13 26 -9 16
5 19 3 13 -7 -5 -8 1 -6 12 3 22 20 33 23 33 7 0 -5 -4 -8 -8 -5 -4 2 -8 -4
-8 -15 0 -25 2 -24 21 9 9 15 14 20 11 10 -3 -11 3 -18 22 -24 15 -4 30 -7 35
-6 4 1 7 -2 7 -6 0 -5 7 -9 16 -9 15 0 14 2 -1 13 -10 8 -22 11 -26 8 -5 -3
-9 0 -9 6 0 8 7 9 18 5 40 -17 55 -18 47 -5 -5 9 -4 11 4 6 9 -6 9 -11 1 -21
-9 -11 -7 -14 9 -12 12 1 19 7 17 13 -3 8 3 10 16 6 11 -2 23 -14 27 -25 8
-20 8 -20 13 1 4 12 3 20 -1 17 -4 -2 -8 2 -8 10 0 11 4 12 13 4 17 -14 53
-19 59 -9 3 5 -4 7 -16 5 -12 -2 -18 -1 -15 3 8 8 14 9 52 11 19 1 25 5 20 17
-3 9 -2 12 5 9 5 -4 16 -1 24 5 8 6 19 9 25 5 5 -3 10 -2 10 3 0 12 53 10 62
-2 10 -14 80 -17 95 -5 9 9 14 7 19 -6 5 -11 9 -13 14 -6 9 16 50 22 50 8 0
-8 3 -9 8 -1 6 10 38 14 125 17 17 0 26 5 23 12 -2 6 2 12 10 12 7 0 11 -3 9
-7 -2 -3 6 -6 18 -7 12 0 16 1 10 4 -7 3 -13 9 -13 15 0 6 7 8 15 4 8 -3 14
-2 12 2 -1 4 0 7 3 8 3 0 16 6 29 13 19 11 22 11 16 -1 -3 -7 0 -5 8 5 13 15
15 16 21 2 3 -8 11 -15 18 -15 9 0 9 3 -2 10 -8 5 -12 11 -9 15 3 3 14 -5 25
-17 10 -12 13 -18 7 -14 -7 4 -13 3 -13 -3 0 -5 5 -11 12 -13 6 -2 12 -11 14
-20 1 -8 5 -25 9 -37 4 -14 2 -21 -6 -21 -7 0 -9 -3 -6 -6 4 -4 12 -2 20 4 10
8 13 6 13 -8 0 -10 -4 -16 -9 -13 -5 3 -1 -9 8 -26 9 -17 13 -36 10 -41 -3 -5
0 -12 6 -16 8 -5 9 -3 4 7 -5 8 -4 10 0 6 12 -10 15 -38 4 -31 -14 9 -10 -1
10 -25 15 -17 17 -29 11 -52 -6 -19 -5 -27 1 -23 6 3 13 -3 16 -14 2 -11 15
-24 29 -30 16 -8 22 -16 17 -28 -5 -13 -2 -16 10 -11 9 3 19 2 22 -4 4 -5 11
-6 17 -3 7 4 8 2 4 -5 -4 -6 -11 -9 -16 -6 -5 3 -11 1 -14 -4 -4 -5 5 -8 19
-7 13 2 22 -1 19 -5 -3 -5 4 -9 15 -9 12 0 21 -5 21 -11 0 -6 7 -9 15 -6 8 4
17 2 20 -4 4 -5 10 -7 15 -4 5 3 13 -3 19 -12 6 -11 11 -13 11 -5 0 7 5 10 10
7 6 -4 8 -10 6 -14 -3 -4 1 -8 9 -8 8 0 12 5 8 10 -3 5 4 4 14 -2 11 -6 23 -8
25 -5 3 2 17 0 32 -5 19 -8 26 -7 26 2 0 8 3 8 8 2 4 -6 46 -10 94 -10 49 0
88 -4 88 -9 0 -6 5 -5 12 2 16 16 31 15 22 0 -5 -8 -1 -8 10 1 15 13 19 13 27
0 7 -11 9 -11 9 3 0 15 4 16 26 8 16 -7 23 -7 19 0 -3 6 -3 10 2 11 50 5 66 3
73 -11 6 -9 10 -11 10 -2 0 6 5 12 11 12 5 0 8 -4 5 -9 -4 -5 4 -7 16 -3 16 4
19 2 13 -8 -6 -9 -4 -11 4 -6 7 5 21 0 33 -10 19 -18 20 -18 35 1 12 16 14 16
10 3 -7 -19 2 -27 33 -33 11 -2 27 -11 36 -19 8 -9 22 -16 30 -16 8 0 13 -4 9
-9 -3 -5 0 -13 6 -17 7 -4 9 -3 6 3 -4 6 0 14 9 17 8 3 12 2 9 -3 -3 -5 -1
-12 5 -16 5 -3 10 1 10 10 0 9 5 13 11 10 6 -4 8 -14 5 -24 -4 -11 -2 -10 9 4
14 17 17 18 25 5 6 -10 10 -11 10 -3 0 8 11 11 30 9 17 -2 32 0 34 3 3 4 41 7
85 6 45 0 82 4 84 9 2 5 11 7 21 3 10 -4 14 -12 10 -18 -4 -8 -3 -9 5 -5 6 4
9 12 6 17 -7 10 23 8 42 -4 6 -4 14 -3 18 3 3 5 19 8 35 6 23 -3 28 0 25 15
-3 16 -1 17 16 9 10 -6 19 -7 18 -3 -3 20 2 27 12 13 8 -12 9 -10 4 8 -4 13
-2 22 4 22 6 0 11 -5 11 -12 0 -6 3 -8 6 -5 4 4 1 14 -7 24 -9 11 -10 14 -1 9
7 -4 12 -2 12 4 0 6 5 8 10 5 6 -3 10 1 10 10 0 10 -5 13 -12 9 -6 -4 -8 -3
-5 4 4 5 18 9 32 7 22 -2 23 0 13 13 -11 13 -10 15 9 10 16 -4 20 -2 16 8 -3
8 -10 14 -17 14 -6 0 -5 4 4 9 16 11 33 4 25 -9 -3 -5 -1 -11 4 -14 5 -3 8 7
7 23 -1 16 0 29 3 29 20 -2 31 3 26 11 -3 5 -1 12 4 15 5 4 13 1 17 -5 4 -8 3
-9 -4 -5 -17 10 -15 1 2 -14 13 -10 14 -8 10 13 -3 22 -1 25 21 22 17 -1 25 3
25 14 0 14 2 14 10 1 8 -13 10 -13 10 2 0 9 9 20 20 23 12 4 17 11 13 18 -4 7
1 6 10 -2 19 -15 23 -26 5 -15 -7 4 -8 3 -4 -5 9 -14 29 -3 23 13 -3 7 1 13 9
13 9 0 12 -7 8 -19 -8 -28 5 -22 16 7 8 21 13 24 28 16 13 -7 23 -6 32 2 9 8
11 8 7 1 -4 -7 0 -14 8 -17 10 -4 12 -1 8 10 -5 12 -2 13 13 6 10 -4 28 -8 39
-8 11 0 32 -12 47 -28 15 -16 31 -26 36 -23 5 3 20 -1 35 -9 19 -9 29 -10 33
-3 4 7 2 8 -4 4 -8 -5 -10 -1 -5 10 4 11 8 13 11 6 2 -7 9 -9 14 -6 7 5 8 2 4
-5 -6 -9 3 -11 33 -8 23 2 44 0 47 -5 4 -6 17 -8 30 -5 14 2 27 0 30 -5 4 -5
10 -5 17 0 7 5 20 8 30 7 9 -2 17 2 17 8 0 8 3 7 9 -2 6 -9 11 -10 15 -2 4 6
12 9 17 5 6 -3 20 2 31 13 15 12 19 13 14 3 -4 -8 1 -5 12 8 19 21 39 31 28
14 -3 -5 1 -9 8 -9 8 0 12 6 9 13 -2 6 1 15 8 20 8 5 10 3 5 -7 -4 -8 -1 -6 7
3 8 10 17 15 20 11 7 -6 11 13 8 31 -1 5 5 4 13 -3 9 -7 13 -18 9 -24 -3 -6
-1 -7 5 -3 6 3 9 15 7 26 -3 17 -1 19 17 9 11 -6 18 -7 15 -2 -3 4 2 17 10 28
15 19 15 19 9 -5 -6 -21 -5 -22 4 -7 6 9 16 14 22 11 6 -4 9 -3 6 2 -3 5 6 18
21 29 18 13 22 14 13 3 -11 -13 -11 -18 0 -24 7 -4 10 -4 6 1 -4 4 3 16 15 25
16 13 24 15 30 7 5 -7 7 -3 4 11 -4 15 -1 20 6 15 20 -12 37 -12 34 0 -1 7 4
11 11 9 7 -1 23 3 35 10 12 7 26 11 30 10 4 -1 10 5 13 13 4 8 13 15 21 15 9
0 11 5 7 13 -5 7 0 6 11 -3 10 -8 16 -10 12 -4 -4 7 0 15 9 18 10 4 13 2 8 -7
-6 -9 -4 -9 8 1 13 10 17 10 21 0 3 -8 6 -5 6 6 1 11 4 16 8 13 3 -4 12 -2 20
4 10 9 13 8 13 -1 0 -7 14 1 30 18 17 18 30 28 30 24 0 -4 -6 -14 -12 -21 -11
-11 -9 -11 10 -1 13 6 21 17 19 24 -3 7 3 18 14 24 15 10 17 17 9 37 -6 15 -6
26 1 30 5 4 7 10 4 15 -3 4 2 11 11 14 13 5 14 9 4 21 -11 14 -7 19 13 16 4
-1 3 8 -3 18 -8 16 -6 24 12 42 13 12 17 19 11 15 -19 -11 -16 5 5 21 10 8 11
11 2 7 -12 -7 -13 -5 -3 8 7 8 9 19 5 23 -4 5 -1 4 7 0 11 -6 13 -4 8 9 -6 14
-3 17 9 12 14 -5 15 -4 4 8 -10 13 -8 21 11 47 13 18 18 29 11 25 -8 -5 -10
-2 -6 8 3 9 9 14 14 11 4 -2 6 7 4 20 -1 14 2 25 7 25 5 0 9 7 9 15 0 8 4 15
9 15 4 0 6 11 3 25 -2 15 0 25 7 25 7 0 9 -5 5 -12 -4 -7 -3 -8 5 -4 9 6 9 11
0 22 -9 11 -8 14 2 14 11 0 11 2 -1 10 -13 8 -13 10 1 10 11 0 15 8 14 25 -2
14 1 25 5 25 5 0 7 9 5 20 -2 11 3 27 11 35 14 14 11 19 -9 16 -4 -1 0 11 10
26 11 17 13 24 5 19 -11 -7 -12 -4 -4 11 11 19 13 223 3 223 -4 0 -7 28 -9 62
-2 34 -5 65 -8 69 -2 4 0 10 6 14 6 4 7 11 4 17 -5 8 -1 9 11 4 15 -5 16 -4 6
8 -9 11 -9 16 0 22 8 5 10 3 4 -7 -5 -8 -5 -11 0 -7 4 4 15 2 24 -5 14 -11 14
-10 2 6 -13 16 -13 20 0 28 10 8 7 9 -11 5 -14 -3 -19 -3 -12 0 6 3 9 11 6 16
-5 7 -2 8 6 3 10 -6 12 -4 7 8 -3 9 -1 19 5 23 7 4 8 3 4 -4 -4 -7 -2 -12 4
-12 6 0 8 -5 4 -12 -4 -7 -3 -8 4 -4 6 4 8 14 5 23 -5 12 -3 14 8 8 11 -6 11
-5 3 4 -9 10 -6 19 12 38 13 14 24 31 24 37 0 6 -5 3 -11 -7 -5 -9 -15 -17
-20 -17 -6 0 -3 7 5 16 9 8 14 20 11 25 -4 5 1 6 10 3 11 -4 14 -2 9 9 -3 8 0
18 7 23 8 4 10 3 5 -4 -4 -7 -2 -12 3 -12 6 0 11 5 11 11 0 5 4 8 9 4 5 -3 13
0 17 6 4 7 3 9 -4 5 -6 -3 -14 -1 -18 6 -4 7 -3 10 1 5 5 -4 18 -1 29 6 12 8
29 13 39 11 9 -1 17 1 17 6 0 4 19 8 43 9 64 3 67 4 67 14 0 5 7 4 15 -3 8 -7
15 -9 15 -4 0 12 51 35 62 28 5 -3 7 -1 6 4 -2 5 8 19 22 31 14 13 19 19 11
15 -10 -5 -12 -3 -7 5 5 7 14 10 21 8 8 -4 12 3 11 16 0 12 4 21 10 20 6 -1
11 4 11 12 0 8 -5 12 -10 8 -5 -3 -2 6 7 19 9 14 13 28 9 32 -4 4 0 4 10 0 15
-5 16 -3 7 20 -6 16 -6 25 -1 21 6 -3 9 3 9 12 -1 26 5 47 17 55 6 5 5 8 -4 8
-11 0 -11 3 -1 15 7 8 13 35 15 60 1 25 8 51 14 58 8 10 7 17 -1 25 -9 9 -9
12 -1 12 7 0 10 9 8 20 -2 11 0 22 5 25 5 3 7 14 5 25 -2 11 2 20 8 20 8 0 8
3 -2 9 -7 5 -9 11 -4 14 4 3 7 54 5 114 -4 146 -5 153 -15 153 -5 0 -4 7 3 15
10 12 10 15 0 15 -10 0 -10 3 0 15 14 17 14 16 -15 34 -13 8 -14 11 -3 7 13
-4 15 0 11 17 -2 12 -6 35 -7 50 -1 16 -9 33 -17 38 -9 6 -10 9 -2 9 7 0 10 7
7 18 -5 14 -4 15 5 2 10 -13 11 -12 9 5 -2 13 2 19 11 17 12 -3 12 0 2 12 -7
9 -17 14 -21 11 -5 -3 -12 0 -16 6 -4 7 -3 9 4 5 6 -3 13 -2 17 4 3 5 -2 10
-12 10 -17 1 -17 1 0 11 24 14 21 29 -5 30 -13 0 -17 3 -10 6 6 2 12 11 12 19
0 9 -5 13 -12 9 -7 -4 -4 1 6 9 20 16 20 16 0 16 -16 0 -17 2 -4 10 13 8 13
10 -2 10 -11 0 -15 5 -12 15 4 8 2 21 -3 28 -5 6 -10 26 -12 42 -2 17 -8 33
-13 36 -7 4 -6 9 1 14 9 5 9 11 0 22 -10 11 -10 16 0 23 10 5 10 9 2 15 -9 5
-9 10 0 21 9 11 9 14 0 14 -7 0 -9 5 -6 10 4 6 12 7 18 4 7 -4 1 4 -12 19 -12
14 -20 31 -16 37 4 6 1 17 -5 25 -10 12 -10 18 0 31 11 13 10 16 -8 20 -29 8
-37 35 -16 51 16 11 14 13 -14 9 -26 -3 -30 -1 -21 10 6 8 15 12 18 9 4 -2 8
2 8 10 0 8 -4 15 -9 15 -4 0 -8 -4 -8 -8 0 -4 -9 -8 -20 -9 -27 -2 -25 4 5 19
25 13 25 13 4 26 -12 8 -18 9 -15 3 4 -5 1 -13 -5 -17 -7 -4 -9 -3 -6 3 9 14
-17 35 -29 25 -5 -4 1 5 14 19 22 25 22 26 3 43 -14 13 -21 14 -27 5 -4 -8 -3
-10 4 -5 8 5 10 1 6 -11 -4 -14 -3 -15 4 -4 6 8 12 9 16 3 12 -19 -21 -20 -37
-1 -9 10 -12 19 -7 19 16 0 12 27 -5 34 -8 3 -18 -2 -23 -10 -7 -13 -11 -10
-22 16 -10 24 -15 28 -22 18 -7 -9 -8 -6 -5 10 3 12 1 20 -3 17 -5 -3 -13 3
-19 12 -6 10 -11 13 -11 8 0 -6 3 -15 8 -20 4 -6 -3 -1 -14 10 -12 11 -19 23
-17 28 2 4 -1 7 -7 7 -6 0 -9 4 -5 9 3 5 -2 16 -10 25 -10 9 -11 17 -5 21 7 4
3 16 -8 33 -11 15 -17 33 -14 41 2 7 -2 17 -9 22 -9 5 -10 9 -2 9 6 0 9 9 6
20 -3 11 -10 17 -17 13 -6 -4 -6 -1 2 9 10 12 9 18 -3 28 -8 7 -12 16 -9 21 3
5 0 9 -7 9 -8 0 -8 4 1 15 7 9 10 18 6 22 -3 3 -6 1 -6 -5 0 -6 -7 -9 -16 -5
-13 5 -13 7 -2 14 10 7 10 9 1 9 -7 0 -13 6 -13 14 0 8 -9 17 -19 21 -13 4
-18 12 -14 22 5 12 3 14 -7 8 -10 -6 -12 -4 -7 9 4 9 3 15 -2 12 -5 -3 -21 6
-37 19 -16 14 -33 25 -39 25 -5 0 -3 5 5 10 10 7 11 10 3 11 -7 1 -17 2 -22 3
-6 0 -16 7 -23 15 -7 8 -8 11 -2 8 7 -4 14 0 17 8 4 10 1 12 -10 8 -13 -5 -15
-2 -9 12 4 11 4 17 1 13 -11 -10 -44 24 -38 38 3 8 0 14 -7 14 -6 0 -8 5 -5
10 4 6 3 10 -2 9 -20 -3 -34 2 -28 11 3 6 -1 10 -9 10 -9 0 -16 4 -16 10 0 5
-7 7 -15 4 -8 -4 -15 -2 -15 2 0 5 -17 9 -37 8 -25 0 -37 -5 -35 -13 1 -8 -2
-10 -10 -5 -18 11 -38 14 -38 5 0 -4 -7 -8 -15 -8 -8 0 -15 5 -15 10 0 5 -8 3
-17 -4 -10 -7 -15 -9 -11 -5 4 5 -4 19 -17 32 -14 13 -25 26 -25 29 1 21 -1
25 -10 20 -9 -5 -15 15 -11 37 0 4 -7 5 -17 1 -14 -5 -15 -3 -4 8 6 7 12 18
12 24 0 5 -5 3 -10 -5 -7 -10 -10 -11 -11 -2 -3 23 -4 27 -19 48 -8 11 -24 26
-35 32 -14 8 -16 12 -5 12 13 0 13 1 0 10 -13 9 -13 11 0 20 8 5 10 10 5 10
-6 0 -16 -5 -23 -10 -6 -6 -10 -7 -7 -4 2 4 -3 20 -12 35 -14 23 -20 26 -32
16 -12 -9 -13 -9 -7 1 7 11 3 13 -32 16 -7 1 -16 6 -20 11 -4 6 -13 11 -21 13
-12 3 -12 0 -1 -13 11 -13 10 -15 -4 -9 -9 3 -16 11 -16 18 0 6 -5 4 -10 -4
-7 -11 -10 -11 -10 -2 0 7 -4 10 -10 7 -5 -3 -10 -1 -10 5 0 7 -7 7 -22 -1
-13 -6 -20 -8 -16 -4 5 5 -1 15 -12 22 -11 8 -18 19 -15 24 3 5 -2 6 -11 2
-12 -4 -15 -3 -10 6 6 8 2 11 -9 9 -10 -2 -19 3 -21 10 -1 7 0 8 3 2 3 -6 10
-4 19 4 19 19 18 32 -1 16 -12 -10 -15 -10 -15 0 0 10 -3 10 -14 0 -12 -9 -15
-8 -15 7 1 27 -6 51 -16 60 -4 4 -5 3 -2 -3 4 -7 0 -15 -9 -18 -9 -3 -12 -2
-9 5 8 12 -14 41 -25 34 -5 -3 -12 0 -16 6 -4 8 -3 9 4 5 7 -4 12 -1 12 6 0 8
5 6 11 -4 5 -10 15 -18 20 -18 6 0 3 7 -5 16 -9 8 -13 20 -10 26 4 6 2 8 -3 5
-15 -9 -36 19 -27 35 5 10 4 10 -6 1 -11 -10 -10 -16 5 -33 10 -11 14 -20 8
-20 -5 0 -16 11 -23 25 -10 18 -16 22 -22 13 -5 -8 -8 -9 -8 -2 0 6 10 18 21
26 21 14 21 14 1 14 -11 0 -19 -3 -16 -7 2 -4 -3 -9 -11 -13 -9 -3 -19 3 -25
17 -11 22 -11 22 6 2 13 -15 15 -16 11 -3 -3 9 -3 19 1 21 4 2 2 3 -4 1 -6 -1
-17 3 -24 9 -10 9 -11 9 -6 0 4 -7 2 -13 -3 -13 -6 0 -11 5 -11 10 0 6 -5 10
-11 10 -5 0 -8 -4 -5 -9 4 -5 -3 -7 -14 -4 -11 3 -20 9 -20 14 0 5 8 5 18 2
16 -6 16 -6 0 10 -18 18 -33 23 -24 8 3 -5 -1 -11 -9 -14 -10 -4 -12 -1 -8 11
5 14 3 15 -7 5 -9 -8 -19 -9 -32 -2 -10 5 -23 7 -28 4 -22 -13 -31 7 -13 28 9
12 11 16 3 10 -16 -15 -34 -17 -26 -4 3 5 -2 8 -12 7 -9 0 -16 4 -15 11 2 12
-27 11 -62 -2 -20 -8 -20 -8 0 8 11 8 17 19 12 23 -4 4 -7 2 -7 -4 0 -7 -9
-12 -20 -12 -11 0 -20 -4 -20 -10 0 -5 -4 -10 -8 -10 -5 0 -9 7 -9 15 0 8 4
12 9 9 4 -3 8 0 8 6 0 6 -8 10 -17 8 -12 -2 -17 2 -15 12 2 8 0 11 -4 7 -12
-12 -13 -37 -1 -37 5 0 8 -3 5 -6 -4 -3 -15 -1 -26 5 -13 7 -23 7 -32 -2 -10
-9 -11 -9 -6 0 3 6 2 14 -4 18 -6 4 -7 11 -4 17 4 7 2 8 -5 4 -6 -4 -9 -10 -7
-14 6 -10 -53 -7 -62 3 -4 5 -2 5 5 1 6 -3 14 -3 17 2 2 4 -4 9 -15 9 -10 1
-19 -3 -19 -8 0 -5 -6 -4 -14 3 -10 9 -11 15 -2 20 7 5 7 8 1 8 -6 0 -16 -5
-23 -12 -9 -9 -12 -9 -12 1 0 9 -8 11 -26 7 -18 -5 -24 -3 -18 5 5 8 3 9 -5 5
-7 -5 -21 0 -32 10 -11 10 -20 14 -19 9 4 -20 0 -35 -10 -35 -5 0 -9 3 -9 8 3
19 -2 23 -16 12 -12 -10 -16 -9 -21 4 -3 9 -10 16 -16 16 -5 0 -6 -6 -2 -12 6
-9 3 -9 -9 1 -9 7 -23 11 -31 8 -8 -3 -20 2 -28 11 -12 15 -11 16 5 3 9 -7 17
-9 17 -3 0 15 -28 23 -36 10 -4 -7 -10 -4 -17 7 -8 14 -11 15 -18 4 -7 -11 -9
-11 -9 -1 0 9 -7 11 -21 7 -16 -5 -19 -4 -14 6 6 9 3 11 -8 6 -10 -4 -17 -1
-17 6 0 8 -4 6 -10 -3 -6 -9 -10 -10 -10 -3 0 6 -9 10 -20 8 -11 -2 -22 0 -25
6 -4 5 -13 5 -25 -1 -13 -7 -21 -7 -25 0 -5 8 -11 8 -20 0 -10 -8 -15 -8 -20
0 -5 8 -11 8 -21 -1 -11 -9 -14 -8 -14 2 0 10 -3 10 -8 3 -4 -6 -17 -14 -30
-18 -13 -5 -20 -12 -15 -19 4 -8 1 -7 -9 1 -11 9 -18 10 -23 2 -3 -6 -11 -8
-16 -5 -5 3 -7 0 -4 -7 3 -7 -5 -24 -16 -38 -11 -14 -18 -20 -15 -13 4 6 2 14
-4 18 -9 5 -15 -15 -11 -37 0 -5 -2 -7 -7 -7 -24 4 -44 -5 -78 -36 -37 -34
-44 -37 -84 -37 -36 0 -41 2 -34 15 6 9 5 9 -8 0 -12 -11 -20 -8 -46 17 -18
17 -37 30 -43 30 -6 0 -9 7 -6 14 4 10 1 13 -8 10 -8 -3 -11 -12 -8 -20 3 -8
0 -14 -6 -14 -6 0 -10 5 -8 11 1 6 -4 14 -12 17 -10 3 -11 0 -5 -9 6 -11 5
-12 -8 -2 -8 7 -18 10 -22 6 -4 -4 -4 1 0 12 6 16 5 18 -7 8 -15 -15 -33 -18
-25 -5 3 5 -1 9 -9 9 -8 0 -11 -5 -8 -10 4 -6 0 -8 -10 -4 -12 4 -17 1 -17
-11 0 -15 -2 -15 -10 -2 -9 14 -15 7 -11 -14 1 -5 -6 -3 -15 5 -16 12 -17 12
-11 -3 3 -10 2 -18 -3 -18 -6 0 -10 5 -10 11 0 5 -4 8 -10 4 -5 -3 -7 -12 -3
-20 4 -11 1 -13 -13 -8 -11 4 -15 3 -11 -4 5 -7 0 -9 -12 -6 -10 3 -22 -1 -26
-8 -6 -8 -4 -10 5 -4 8 5 11 4 7 -2 -3 -5 -16 -9 -29 -8 -13 1 -29 -3 -37 -9
-12 -9 -13 -8 -6 4 8 13 7 13 -8 1 -15 -12 -17 -11 -17 5 0 16 -2 17 -10 4 -7
-12 -10 -12 -10 -1 0 7 -6 11 -14 8 -10 -4 -12 0 -9 14 3 11 0 19 -6 19 -7 0
-9 -5 -5 -12 4 -7 3 -8 -5 -4 -9 6 -9 11 0 22 9 11 9 14 -1 14 -7 0 -10 7 -6
15 3 8 2 15 -2 15 -15 0 -29 48 -19 65 8 15 7 17 -9 11 -10 -4 -15 -4 -12 -1
4 4 3 18 -2 31 -7 17 -6 24 3 24 7 0 5 5 -5 10 -10 6 -15 20 -14 35 2 13 -1
22 -5 19 -9 -5 -12 5 -12 38 0 10 -3 15 -8 13 -4 -3 -8 3 -8 12 -2 55 -6 73
-15 73 -6 0 -4 5 4 10 12 8 12 10 1 10 -8 0 -11 7 -8 19 2 10 1 25 -4 32 -4 7
-3 21 2 31 7 13 6 18 -2 16 -7 -2 -15 5 -17 16 -3 13 0 16 9 11 8 -5 10 -4 5
3 -4 7 -15 12 -24 12 -10 0 -13 3 -7 8 16 12 18 35 2 29 -11 -4 -13 0 -9 15 4
16 2 19 -9 13 -11 -7 -11 -5 1 10 14 17 13 18 -2 12 -13 -4 -15 -2 -11 10 4
10 2 14 -4 10 -7 -5 -9 0 -6 13 3 11 0 20 -6 20 -6 0 -8 7 -4 17 5 11 3 14 -6
8 -10 -6 -11 -3 -2 14 10 17 9 21 -3 21 -11 0 -13 6 -6 29 4 16 5 32 2 36 -4
3 0 10 8 15 11 7 12 10 2 10 -7 0 -10 5 -7 10 4 6 12 8 18 4 7 -3 3 2 -7 10
-11 9 -14 16 -8 16 7 0 12 12 12 26 0 20 4 25 16 20 8 -3 12 -2 9 4 -3 6 -1
10 5 10 6 0 9 4 6 9 -4 5 5 4 18 -2 14 -7 20 -15 14 -18 -6 -4 -5 -9 3 -12 12
-4 11 -7 -1 -16 -13 -9 -12 -11 4 -11 13 0 17 -5 13 -20 -3 -11 -1 -20 5 -20
6 0 8 -7 5 -15 -4 -8 -2 -17 4 -20 5 -4 7 -10 4 -15 -3 -4 2 -10 10 -13 10 -4
12 -1 9 11 -2 9 1 7 7 -5 7 -13 16 -23 21 -23 5 0 6 -4 3 -10 -3 -5 -1 -10 6
-10 6 0 18 -8 26 -17 8 -10 11 -12 7 -4 -5 9 -3 12 4 7 7 -4 12 -17 13 -29 0
-12 3 -16 6 -9 2 6 9 12 14 12 6 0 6 -8 -1 -19 -7 -14 -7 -22 2 -27 6 -4 8 -3
4 4 -3 6 -2 13 4 17 5 3 10 -3 10 -14 0 -11 4 -23 10 -26 6 -4 7 1 3 11 -4 12
-3 15 5 10 7 -4 12 -14 12 -22 0 -8 7 -14 16 -14 8 0 13 -4 10 -9 -3 -5 1 -12
10 -15 9 -3 12 -11 8 -18 -6 -10 -4 -10 7 -2 8 6 22 10 32 9 9 -2 17 0 17 5 0
4 7 11 16 14 13 5 14 3 6 -7 -8 -10 -6 -13 8 -13 10 0 16 4 14 8 -8 12 24 10
49 -4 19 -9 20 -9 10 3 -9 12 -5 14 25 14 25 0 36 4 34 13 -1 8 2 11 8 7 6 -3
8 -10 5 -15 -3 -5 -1 -11 5 -15 5 -3 10 -1 10 5 0 6 5 8 13 4 8 -5 8 -2 -2 9
-9 12 -10 17 -2 17 7 0 9 5 6 10 -4 6 -11 7 -17 4 -7 -4 -8 -2 -4 4 4 7 13 12
20 12 7 0 13 7 13 15 0 10 -4 12 -12 5 -9 -8 -14 -6 -19 5 -3 8 0 15 7 15 7 1
2 6 -11 13 -12 7 -21 15 -20 18 2 2 -3 -2 -9 -10 -11 -13 -13 -12 -13 6 0 11
-7 24 -16 27 -10 4 -14 12 -10 23 4 9 1 20 -6 25 -10 6 -10 8 0 8 6 0 12 7 12
16 0 8 -5 12 -11 8 -8 -4 -8 -1 -1 13 6 11 7 25 2 33 -5 8 -6 18 -3 22 2 5 -1
16 -9 25 -9 12 -9 15 -1 9 9 -5 11 -2 7 8 -3 9 -11 13 -18 9 -6 -4 -4 2 4 12
9 11 10 16 3 11 -9 -5 -13 0 -13 14 0 14 -4 19 -12 14 -8 -5 -9 -2 -5 9 3 9 1
19 -5 23 -7 4 -8 3 -4 -4 4 -7 3 -12 -3 -12 -9 0 -27 38 -24 50 1 3 -8 7 -20
7 -12 1 -23 7 -25 13 -2 5 -13 10 -23 10 -11 0 -17 5 -14 10 3 6 -4 10 -17 10
-13 0 -29 5 -36 12 -8 8 -12 8 -12 1 0 -13 -32 -12 -43 2 -6 6 -10 5 -14 -3
-4 -10 -8 -10 -21 0 -13 11 -14 11 -8 -1 7 -10 3 -12 -14 -6 -15 5 -25 2 -31
-6 -6 -10 -9 -10 -9 -2 0 7 -7 10 -15 7 -9 -4 -18 1 -22 12 -3 11 -11 22 -16
25 -5 4 -9 42 -8 85 1 44 2 87 2 97 0 12 5 17 14 13 9 -3 12 0 9 8 -3 8 8 23
25 35 21 15 31 18 34 9 4 -10 6 -10 6 0 1 7 6 10 11 7 6 -4 10 -3 9 2 -3 20 2
27 11 13 9 -13 10 -13 10 0 0 13 1 13 10 0 8 -13 10 -12 10 3 0 10 5 15 10 12
6 -3 10 -1 10 4 0 6 7 11 16 11 9 0 12 5 8 13 -5 7 0 6 11 -3 17 -14 18 -13
12 2 -4 13 -2 15 10 11 12 -5 14 -3 8 8 -8 12 -6 12 8 0 15 -12 17 -12 11 4
-5 13 -4 16 4 11 7 -4 12 -3 12 1 0 5 7 18 16 29 8 10 13 14 10 7 -4 -6 -2
-15 4 -18 6 -4 10 -3 9 2 -4 21 3 32 20 38 15 4 18 12 15 33 -5 26 -5 26 11 7
9 -11 14 -14 10 -7 -3 6 -3 12 2 12 4 0 19 10 33 21 17 15 19 19 7 15 -12 -4
-16 -2 -11 5 4 6 19 9 38 5 20 -4 26 -3 17 3 -7 5 -10 14 -6 20 5 9 11 9 23
-1 12 -10 14 -10 8 0 -4 6 -2 12 3 12 6 0 11 4 11 10 0 5 -8 7 -17 4 -15 -5
-15 -4 1 6 10 7 21 8 25 4 3 -5 12 -10 20 -12 12 -3 12 0 1 13 -11 13 -10 14
5 9 13 -5 16 -4 11 4 -5 9 0 9 19 2 19 -7 24 -7 19 1 -5 8 1 10 20 7 19 -4 26
-1 26 11 0 14 2 14 10 1 8 -13 13 -13 31 -2 11 8 19 9 15 4 -3 -5 5 -7 19 -4
14 2 22 8 19 13 -3 5 2 6 10 3 9 -3 13 -11 9 -17 -3 -6 -1 -7 5 -3 7 4 12 15
12 24 0 15 2 15 10 2 9 -13 10 -13 10 0 0 13 1 13 10 0 8 -12 10 -12 16 3 3 9
10 17 16 17 5 0 7 -4 3 -9 -3 -5 -1 -13 5 -16 6 -4 10 -3 9 2 -3 19 2 30 16
30 12 0 12 -3 3 -16 -7 -9 -2 -7 10 4 20 16 25 17 32 5 8 -13 10 -12 10 3 0 9
5 17 11 17 5 0 7 -6 3 -12 -6 -9 -3 -9 9 0 9 8 22 10 28 6 8 -4 9 -3 5 4 -4 7
-2 13 3 13 6 1 20 3 31 4 11 1 25 3 30 4 6 0 10 9 10 19 0 13 2 14 9 3 6 -9
11 -10 15 -2 4 6 12 11 17 11 6 0 8 -4 5 -9 -4 -5 5 -4 18 2 13 7 22 16 18 22
-3 5 1 4 10 -3 12 -10 18 -9 28 4 8 8 21 13 31 11 12 -3 16 0 14 13 -2 13 2
16 14 13 10 -2 24 4 32 13 12 15 12 16 0 9 -10 -5 -12 -4 -7 4 6 9 11 9 21 1
12 -10 13 -8 10 10 -4 18 -2 20 11 9 12 -10 13 -9 8 5 -4 11 -1 16 11 16 9 0
14 4 10 10 -3 5 8 16 25 25 16 8 30 18 30 21 0 3 -4 3 -9 -1 -5 -3 -13 -1 -16
5 -4 6 -3 10 2 9 23 -4 43 2 38 11 -4 6 -12 7 -18 4 -7 -4 -8 -3 -4 2 8 9 12
10 40 13 8 1 7 4 -3 11 -12 8 -10 10 9 10 16 0 21 4 17 15 -3 8 -2 14 2 14 19
-3 28 3 40 31 8 16 17 29 20 29 20 -3 25 2 12 11 -13 8 -12 10 2 10 10 0 17 6
15 13 -1 6 4 11 12 9 12 -3 12 0 2 12 -9 11 -9 16 0 22 8 5 9 3 4 -6 -6 -9 -4
-11 4 -6 7 5 10 14 7 22 -4 12 -2 12 15 3 19 -10 20 -9 9 11 -6 12 -9 24 -6
28 3 3 6 0 6 -7 0 -7 5 -9 11 -6 6 4 8 14 4 22 -5 14 -3 14 12 2 9 -8 14 -9
10 -2 -4 6 4 20 19 32 15 12 22 21 17 21 -6 0 -16 -7 -23 -15 -7 -8 -17 -15
-22 -15 -5 0 2 11 16 23 14 13 23 27 20 30 -3 3 4 10 15 17 12 6 21 15 21 21
0 6 -4 7 -10 4 -5 -3 -10 -1 -10 5 0 8 9 10 28 5 26 -6 26 -6 7 9 -20 15 -20
15 2 16 16 0 20 5 16 20 -3 12 0 20 6 20 7 0 9 -5 5 -12 -4 -7 -3 -8 5 -4 9 6
9 12 -1 24 -7 10 -9 14 -4 10 4 -4 17 2 29 12 11 11 25 17 30 13 6 -3 7 -1 3
6 -6 9 -11 9 -22 0 -8 -6 -17 -9 -21 -5 -3 3 -1 6 5 6 7 0 12 7 12 15 0 9 6
12 15 9 11 -5 13 -2 9 10 -4 11 -1 16 11 16 14 0 15 3 5 15 -10 12 -8 14 8 10
15 -3 19 2 16 21 -2 22 6 29 29 25 5 -1 6 3 3 8 -4 5 2 15 11 21 16 11 16 11
-2 6 -19 -6 -19 -5 -2 8 9 7 17 19 17 25 0 7 5 9 13 5 8 -5 7 -2 -2 9 -8 10
-11 20 -7 24 3 3 6 1 6 -6 0 -7 5 -9 10 -6 6 4 7 11 4 17 -5 8 -1 9 11 4 15
-5 16 -4 5 9 -12 15 -4 21 23 16 5 -1 6 3 2 9 -3 6 -12 8 -18 4 -7 -3 -4 1 7
10 10 8 15 19 11 25 -3 6 0 9 8 5 8 -3 18 0 23 7 5 8 3 10 -5 4 -10 -5 -9 -2
0 13 7 12 17 18 21 16 4 -3 8 2 8 10 0 8 9 20 20 26 11 6 19 14 16 18 -2 4 3
16 11 27 15 19 15 19 9 1 -7 -20 -7 -20 14 -1 20 19 21 20 3 33 -17 14 -17 14
0 8 14 -4 20 0 24 14 3 11 10 17 17 13 6 -4 4 2 -4 12 -14 17 -13 18 3 12 11
-4 16 -3 12 3 -3 6 0 10 7 10 10 0 10 2 -1 9 -11 7 -10 11 5 20 14 8 15 11 4
11 -13 0 -13 1 0 10 8 5 11 10 7 10 -4 0 -3 10 4 21 8 16 8 20 -1 14 -9 -5
-10 -2 -3 11 5 11 11 37 12 59 5 67 7 80 13 90 3 6 4 20 3 33 -1 13 4 22 13
22 11 0 12 3 3 14 -10 12 -8 19 8 35 22 22 28 37 12 26 -5 -3 -3 9 6 26 8 17
16 41 17 55 0 13 4 24 8 24 3 0 4 9 1 20 -3 12 0 20 7 20 10 0 10 3 0 15 -6 8
-9 19 -5 25 4 6 8 34 10 62 1 29 8 54 16 59 9 6 10 9 2 9 -11 0 -7 22 14 80 4
8 5 23 4 34 -2 10 2 15 8 12 6 -4 8 2 6 14 -2 11 1 20 7 20 5 0 7 7 4 16 -5
12 -2 15 10 10 14 -5 15 -4 4 9 -11 14 -7 19 13 16 4 0 7 6 7 15 0 9 -5 12
-12 8 -7 -5 -8 -3 -4 5 5 7 14 10 22 7 12 -5 12 -2 3 15 -7 15 -7 19 0 15 12
-8 26 37 16 53 -3 7 0 8 10 5 11 -5 14 -2 8 12 -5 13 -3 15 8 9 11 -7 11 -5
-1 10 -8 10 -10 16 -5 13 6 -4 17 2 24 14 7 11 8 17 2 13 -20 -12 -11 8 15 31
14 14 19 24 12 24 -8 1 -5 6 6 15 12 9 15 15 7 15 -8 0 -11 6 -7 16 3 8 2 12
-4 9 -6 -3 -10 -2 -10 4 0 5 -15 8 -32 7 -18 -1 -43 1 -54 5 -12 4 -25 5 -28
1 -4 -3 -26 -7 -49 -8 -23 -1 -42 -3 -42 -4 0 -4 -43 -12 -77 -13 -20 -1 -34
-5 -31 -9 2 -5 -5 -8 -17 -8 -13 0 -19 -4 -14 -12 5 -7 3 -8 -6 -3 -7 4 -16 2
-21 -6 -6 -10 -9 -11 -9 -1 0 6 -5 12 -11 12 -5 0 -7 -5 -3 -12 5 -8 2 -9 -9
-5 -9 3 -22 0 -29 -7 -8 -7 -21 -12 -31 -10 -10 1 -14 -2 -11 -8 5 -7 -4 -9
-24 -6 -23 3 -29 1 -24 -11 4 -10 1 -13 -11 -8 -9 3 -17 2 -17 -4 0 -6 -5 -7
-10 -4 -6 3 -24 -3 -40 -15 -17 -12 -30 -18 -30 -14 0 3 -8 0 -17 -7 -10 -8
-14 -9 -10 -2 4 6 3 14 -2 17 -5 4 -12 -3 -16 -13 -4 -12 -12 -18 -21 -14 -7
3 -14 0 -14 -6 0 -6 -7 -8 -15 -5 -9 4 -15 0 -15 -7 0 -12 -2 -12 -9 -1 -7 11
-9 10 -15 -3 -3 -9 -10 -14 -16 -10 -5 3 -23 -4 -39 -16 -26 -19 -32 -20 -48
-8 -9 8 -14 9 -11 4 4 -6 3 -17 -3 -25 -7 -13 -9 -13 -9 0 0 13 -1 13 -10 0
-5 -8 -15 -15 -22 -15 -7 -1 -12 -7 -10 -13 2 -10 -3 -10 -18 -2 -16 8 -20 8
-18 -2 2 -7 -3 -12 -9 -11 -7 2 -13 -5 -13 -15 0 -12 -3 -13 -8 -5 -6 9 -12 7
-22 -8 -8 -11 -24 -25 -35 -30 -20 -10 -20 -10 -1 5 11 9 17 18 14 21 -8 8
-57 -52 -50 -61 4 -5 0 -3 -10 4 -12 10 -18 10 -24 1 -5 -8 -3 -9 6 -4 9 5 11
4 6 -3 -4 -7 -14 -12 -22 -12 -8 0 -13 -4 -10 -9 7 -11 -66 -79 -81 -74 -8 3
-11 -3 -8 -16 3 -15 0 -18 -12 -14 -12 5 -14 3 -8 -7 6 -10 4 -12 -11 -6 -10
4 -15 4 -12 0 10 -9 -11 -46 -21 -39 -5 3 -12 -2 -15 -11 -3 -8 -2 -12 4 -9 6
3 10 4 10 0 0 -3 -10 -9 -22 -14 -13 -5 -23 -17 -23 -27 0 -11 -5 -18 -12 -17
-6 1 -10 -5 -8 -15 3 -21 -34 -64 -49 -55 -6 4 -4 -2 4 -12 14 -17 13 -18 -3
-12 -10 4 -16 3 -12 -2 3 -5 -5 -17 -17 -26 l-23 -17 23 7 23 7 -22 -26 c-25
-29 -39 -36 -18 -8 13 15 12 16 -3 3 -10 -7 -15 -17 -12 -22 2 -5 -2 -21 -10
-36 -17 -32 -22 -23 -5 10 10 21 10 21 -5 3 -9 -11 -16 -24 -16 -29 0 -4 -6
-5 -12 -1 -10 6 -10 5 -1 -7 10 -12 9 -18 -7 -29 -10 -7 -16 -18 -13 -24 4 -6
-2 -4 -12 4 -10 8 -16 10 -12 3 9 -14 -21 -53 -40 -53 -12 0 -18 -13 -14 -34
1 -5 -6 -3 -15 5 -10 8 -15 9 -11 2 4 -7 -1 -14 -14 -18 -17 -6 -19 -9 -8 -17
10 -7 6 -8 -13 -5 -15 2 -27 1 -26 -2 2 -21 -4 -30 -17 -25 -12 5 -14 2 -8
-12 6 -17 5 -17 -10 -6 -14 12 -16 11 -12 -7 2 -12 0 -19 -5 -16 -4 3 -16 -2
-24 -11 -12 -11 -16 -12 -16 -2 0 10 -3 10 -9 -2 -6 -8 -7 -18 -5 -22 3 -4 -2
-5 -10 -2 -9 3 -16 1 -16 -6 0 -6 -4 -9 -9 -6 -5 3 -18 -9 -30 -27 -11 -17
-21 -27 -21 -21 0 5 6 16 13 23 10 10 9 11 -5 6 -10 -4 -18 -13 -18 -20 0 -20
-27 -39 -33 -23 -4 8 -6 7 -6 -4 -1 -12 -6 -15 -18 -11 -11 4 -14 3 -9 -5 4
-7 2 -12 -4 -12 -6 0 -8 -5 -4 -12 5 -8 0 -7 -11 2 -11 9 -16 10 -11 3 5 -9 0
-13 -16 -13 -16 0 -19 -3 -10 -9 10 -6 9 -10 -7 -14 -14 -3 -19 -1 -15 6 3 7
-4 1 -15 -13 -11 -14 -21 -29 -21 -34 0 -6 -7 -1 -15 10 -13 17 -14 17 -15 2
0 -12 -8 -18 -21 -18 -14 0 -19 -5 -16 -13 3 -8 -1 -14 -9 -14 -7 0 -10 5 -7
10 4 6 1 7 -6 3 -7 -5 -10 -15 -6 -23 5 -14 3 -14 -12 -2 -9 8 -14 10 -11 4 3
-5 -4 -19 -15 -30 -11 -11 -17 -14 -12 -6 5 9 3 12 -6 9 -8 -3 -13 -11 -11
-17 1 -6 -3 -11 -9 -11 -6 0 -8 -7 -5 -16 5 -14 4 -15 -9 -4 -14 11 -19 7 -16
-12 0 -5 -5 -8 -12 -8 -7 0 -18 -9 -25 -21 -8 -12 -19 -18 -28 -15 -12 5 -12
2 -3 -17 6 -12 8 -19 4 -15 -5 4 -15 2 -23 -5 -13 -10 -14 -9 -7 2 6 10 4 12
-4 7 -7 -5 -10 -14 -8 -21 4 -8 -3 -11 -19 -9 -13 1 -22 -2 -18 -7 3 -5 10 -6
16 -3 7 4 8 2 4 -4 -4 -7 -16 -12 -28 -12 -14 0 -18 -5 -14 -16 4 -12 2 -15
-9 -10 -9 3 -15 0 -15 -9 0 -8 -7 -15 -16 -15 -9 0 -12 -5 -8 -12 5 -8 2 -9
-9 -5 -19 7 -32 -8 -16 -19 8 -5 9 -3 4 6 -5 9 -4 11 4 6 14 -9 5 -26 -15 -26
-8 0 -12 -4 -9 -10 3 -5 -1 -10 -10 -10 -9 0 -13 -4 -10 -10 11 -18 -42 -11
-56 8 -13 15 -12 16 4 3 15 -12 17 -12 11 3 -3 9 -10 16 -14 16 -5 0 -7 8 -5
18 1 9 -2 22 -7 29 -6 7 -5 14 2 18 8 5 6 13 -5 25 -9 10 -14 24 -10 29 3 6
-2 11 -12 12 -16 0 -16 1 2 8 20 8 20 8 0 15 -12 3 -21 16 -22 28 -1 11 -8 25
-15 29 -10 7 -10 9 0 9 6 0 12 5 12 11 0 5 -4 8 -8 5 -4 -2 -13 4 -20 14 -8
13 -8 21 -1 25 7 5 6 11 -2 21 -6 8 -9 23 -6 34 3 11 1 23 -4 26 -5 3 -7 10
-4 15 4 5 2 9 -3 9 -5 0 -9 17 -10 37 -1 20 -7 40 -14 45 -10 6 -10 8 1 8 11
0 10 4 -5 16 -10 8 -12 12 -4 8 12 -7 13 -5 3 8 -7 8 -9 19 -5 23 4 5 0 6 -9
3 -9 -4 -16 -1 -16 8 0 7 5 11 11 8 6 -3 3 1 -6 9 -12 9 -14 17 -8 25 6 7 7
10 3 7 -11 -8 -35 34 -27 48 5 8 2 8 -9 -2 -15 -12 -17 -11 -18 5 -1 11 -1 22
0 26 0 3 -11 5 -24 3 -21 -2 -23 0 -14 12 9 11 8 12 -5 7 -9 -3 -16 -1 -16 6
0 6 -5 8 -12 4 -8 -5 -9 -2 -5 10 5 13 3 17 -7 13 -10 -4 -13 -1 -9 9 4 10 0
12 -11 8 -11 -4 -16 -1 -16 12 0 16 -2 17 -10 4 -8 -12 -10 -10 -10 10 0 20
-2 22 -10 10 -8 -13 -10 -13 -10 2 0 12 -5 16 -17 11 -10 -3 -15 -3 -11 2 7 7
-14 35 -27 35 -4 0 -14 8 -23 18 -10 10 -13 12 -9 6 6 -9 2 -11 -12 -7 -11 3
-19 10 -18 16 1 6 -13 16 -32 23 -22 7 -29 13 -20 17 9 3 5 6 -9 6 -13 1 -34
13 -48 29 -14 15 -23 21 -19 15 7 -15 -11 -18 -20 -3 -4 6 -11 7 -17 4 -7 -4
-8 -2 -4 4 5 8 -3 12 -24 12 -21 0 -29 4 -24 12 5 8 0 9 -15 5 -17 -4 -20 -3
-11 8 8 9 6 14 -5 19 -9 3 -13 2 -10 -4 3 -6 -1 -7 -9 -4 -9 3 -14 10 -11 14
3 5 1 11 -5 15 -6 4 -8 11 -5 16 3 5 -2 6 -11 2 -11 -4 -15 -2 -11 4 4 6 0 14
-9 17 -8 3 -12 11 -9 17 4 5 -1 19 -11 30 -9 10 -14 19 -10 19 4 0 2 8 -3 18
-7 13 -6 23 2 32 9 10 9 11 0 6 -12 -6 -18 5 -14 27 0 4 -7 7 -16 7 -15 0 -16
2 -3 10 12 7 12 10 1 10 -8 0 -11 6 -7 16 4 11 -1 18 -14 21 -11 3 -20 10 -20
15 0 5 4 7 9 4 5 -4 8 2 6 11 -1 10 -9 17 -18 15 -11 -2 -14 3 -10 18 3 12 0
20 -6 20 -7 0 -9 -6 -5 -12 4 -8 3 -10 -2 -5 -5 5 -10 13 -10 18 -1 5 -2 14
-3 20 0 5 -7 7 -13 3 -8 -5 -7 0 2 11 9 11 10 16 3 11 -8 -4 -13 -2 -13 4 0 6
-4 8 -10 5 -5 -3 -10 0 -10 8 0 8 -10 19 -22 26 -19 9 -19 11 -3 6 l20 -5 -20
16 c-11 8 -19 20 -18 25 2 5 -4 9 -13 9 -9 0 -12 -5 -8 -12 4 -7 3 -8 -4 -4
-9 5 -9 13 -2 26 8 15 7 18 -3 15 -7 -3 -26 9 -42 27 l-30 33 35 -30 35 -30
-29 33 c-17 17 -37 32 -45 32 -14 0 -14 2 -1 11 12 9 11 10 -7 6 -17 -4 -21
-1 -18 15 4 17 2 18 -12 6 -14 -11 -16 -11 -8 1 6 11 4 13 -8 8 -12 -4 -14 -2
-10 10 5 12 2 15 -10 10 -10 -4 -14 -2 -11 7 3 7 -5 21 -17 32 -13 10 -19 13
-15 7 4 -7 2 -13 -3 -13 -10 0 -15 14 -12 33 1 5 -8 5 -20 2 -15 -5 -19 -4
-15 4 4 6 0 11 -8 11 -9 0 -16 6 -16 14 0 9 -7 12 -22 9 -19 -4 -20 -3 -8 6
12 9 11 11 -8 11 -13 0 -20 4 -17 10 6 9 -8 15 -29 11 -5 -1 -15 8 -24 20 -11
17 -16 18 -23 8 -7 -11 -9 -11 -9 -1 0 8 -5 10 -12 6 -7 -4 -10 -3 -5 1 4 5 0
17 -9 27 -14 14 -20 16 -33 6 -9 -7 -13 -8 -9 -4 4 5 -2 17 -14 27 -25 22 -34
24 -22 6 5 -7 2 -5 -8 5 -12 13 -18 15 -21 6 -3 -8 -6 -6 -6 5 -1 10 -5 15
-11 12 -5 -3 -10 -1 -10 4 0 6 -7 11 -16 11 -9 0 -12 5 -8 13 6 9 3 8 -9 -1
-13 -12 -18 -11 -29 7 -9 15 -15 17 -25 9 -10 -8 -13 -6 -13 6 0 13 -5 16 -21
11 -13 -5 -19 -3 -15 3 5 9 -31 24 -44 19 -3 -1 -19 6 -34 17 -16 10 -25 13
-22 7 4 -6 2 -11 -3 -11 -6 0 -11 5 -11 11 0 5 -4 8 -9 4 -5 -3 -12 -1 -16 5
-3 5 -11 10 -16 10 -6 0 -7 -6 -3 -12 5 -7 -9 0 -31 16 -21 16 -35 25 -32 19
4 -6 -4 -10 -20 -10 -21 0 -23 1 -9 9 9 5 14 14 10 19 -4 6 -10 6 -19 -1 -9
-8 -15 -8 -20 0 -3 6 -11 7 -17 4 -7 -4 -8 -2 -4 5 6 9 12 9 24 -1 15 -12 15
-11 4 4 -7 9 -22 15 -32 13 -10 -2 -24 3 -30 11 -7 7 -17 11 -22 8 -6 -4 -6 1
0 13 9 15 8 20 -3 20 -8 0 -12 -5 -9 -11 3 -6 -1 -3 -9 7 -8 9 -20 17 -26 17
-7 0 -9 6 -5 13 6 10 4 10 -7 0 -7 -7 -18 -13 -23 -13 -6 0 -4 5 4 10 13 8 12
10 -2 10 -10 0 -18 -6 -18 -12 -1 -7 -7 -2 -15 12 -8 14 -14 20 -15 13z m2024
-1561 c3 -5 -1 -9 -9 -9 -8 0 -12 4 -9 9 3 4 7 8 9 8 2 0 6 -4 9 -8z m-806
-867 c-3 -3 -9 2 -12 12 -6 14 -5 15 5 6 7 -7 10 -15 7 -18z m2383 -548 c-10
-9 -11 -8 -5 6 3 10 9 15 12 12 3 -3 0 -11 -7 -18z m-1352 -253 c-9 -11 -8
-14 1 -14 7 0 10 -7 6 -15 -3 -8 0 -15 7 -15 8 0 8 -3 -2 -9 -7 -5 -9 -11 -4
-14 5 -4 9 -16 8 -29 -1 -13 2 -28 7 -35 6 -7 5 -14 -2 -18 -8 -5 -8 -11 1
-21 6 -8 8 -14 4 -14 -4 0 -2 -7 5 -15 10 -12 10 -15 -1 -15 -12 0 -12 -2 0
-9 7 -5 10 -14 7 -20 -4 -6 -2 -11 4 -11 6 0 9 -4 5 -9 -3 -5 -1 -12 5 -16 6
-4 8 -11 4 -16 -3 -5 0 -17 8 -26 11 -14 11 -16 -1 -8 -11 6 -12 5 -5 -6 11
-18 16 -38 15 -66 0 -13 4 -23 10 -23 7 0 7 -6 -2 -17 -10 -11 -10 -14 -1 -9
15 9 16 -6 0 -22 -9 -9 -9 -12 0 -12 7 0 10 -9 8 -22 -3 -13 -5 -27 -5 -31 -1
-5 -6 -5 -11 -2 -6 3 -13 -1 -16 -9 -3 -9 -10 -13 -15 -10 -5 3 -6 11 -2 17 4
7 0 6 -10 -2 -15 -12 -17 -11 -17 3 0 10 -4 15 -8 12 -4 -2 -9 4 -10 15 -1 10
-2 27 -3 37 -1 9 -7 20 -13 24 -8 6 -7 8 1 8 14 0 13 40 -2 40 -5 0 -4 4 4 9
12 7 12 13 3 24 -7 7 -9 17 -5 21 11 11 14 48 4 41 -11 -6 -7 28 5 47 4 6 3 8
-3 5 -6 -4 -13 2 -16 13 -3 13 -1 18 6 13 7 -4 6 1 -2 10 -7 9 -11 24 -7 32 3
8 2 15 -2 15 -13 0 -12 143 1 159 9 12 9 13 0 7 -18 -10 -16 -1 2 18 20 19 51
10 34 -10z m491 -1025 c0 -6 -4 -7 -10 -4 -5 3 -10 11 -10 16 0 6 5 7 10 4 6
-3 10 -11 10 -16z m579 -583 c-10 -9 -69 -36 -69 -32 0 7 52 35 64 36 5 0 7
-2 5 -4z m1060 -47 c13 -11 21 -22 17 -26 -3 -4 -13 3 -22 15 -8 12 -20 22
-26 22 -6 0 -5 -7 3 -17 13 -16 12 -17 -3 -4 -10 7 -15 17 -12 22 8 13 16 11
43 -12z m-3182 -461 c-3 -8 -6 -5 -6 6 -1 11 2 17 5 13 3 -3 4 -12 1 -19z
m3948 -78 c16 -17 16 -20 3 -15 -9 4 -19 13 -22 21 -7 19 -2 18 19 -6z m-4135
-155 c0 -2 -10 -9 -22 -15 -22 -11 -22 -10 -4 4 21 17 26 19 26 11z m-546
-353 c3 -5 -1 -9 -9 -9 -8 0 -12 4 -9 9 3 4 7 8 9 8 2 0 6 -4 9 -8z m-484
-417 c-7 -8 -16 -12 -21 -9 -13 8 -1 24 18 24 13 0 13 -3 3 -15z m6230 -769
c-7 -7 -13 -7 -20 0 -6 6 -3 10 10 10 13 0 16 -4 10 -10z m-6623 -1071 c0 -8
-4 -12 -9 -9 -4 3 -8 9 -8 15 0 5 4 9 8 9 5 0 9 -7 9 -15z m23 -35 c0 -5 -5
-10 -11 -10 -5 0 -7 5 -4 10 3 6 8 10 11 10 2 0 4 -4 4 -10z m15 -100 c3 -5 2
-10 -4 -10 -5 0 -13 5 -16 10 -3 6 -2 10 4 10 5 0 13 -4 16 -10z m25 -60 c0
-5 -2 -10 -4 -10 -3 0 -8 5 -11 10 -3 6 -1 10 4 10 6 0 11 -4 11 -10z m6050 6
c0 -2 -7 -7 -16 -10 -8 -3 -12 -2 -9 4 6 10 25 14 25 6z m-5960 -332 c0 -8
-19 -13 -24 -6 -3 5 1 9 9 9 8 0 15 -2 15 -3z m1015 -823 c-3 -6 3 -14 12 -20
10 -6 13 -11 7 -11 -15 0 -36 25 -27 33 10 10 15 8 8 -2z m95 -67 c0 -2 -9 0
-20 6 -11 6 -20 13 -20 16 0 2 9 0 20 -6 11 -6 20 -13 20 -16z m4570 -18 c0
-3 -4 -8 -10 -11 -5 -3 -10 -1 -10 4 0 6 5 11 10 11 6 0 10 -2 10 -4z m-280
-145 c0 -5 -7 -12 -16 -15 -14 -5 -15 -4 -4 9 14 17 20 19 20 6z m-791 -197
c4 3 8 -1 8 -9 0 -11 -4 -12 -14 -4 -7 6 -13 17 -12 23 0 7 2 6 6 -2 2 -6 8
-10 12 -8z m-2070 -28 c-3 -3 -11 5 -18 17 -13 21 -12 21 5 5 10 -10 16 -20
13 -22z m2125 5 c4 -5 -3 -7 -14 -4 -23 6 -26 13 -6 13 8 0 17 -4 20 -9z
m-1284 -187 c0 -8 -19 -13 -24 -6 -3 5 1 9 9 9 8 0 15 -2 15 -3z m45 -14 c3
-5 1 -10 -4 -10 -6 0 -11 5 -11 10 0 6 2 10 4 10 3 0 8 -4 11 -10z"/>
<path d="M6205 14910 c3 -5 8 -10 11 -10 2 0 4 5 4 10 0 6 -5 10 -11 10 -5 0
-7 -4 -4 -10z"/>
<path d="M6366 14637 c3 -10 9 -15 12 -12 3 3 0 11 -7 18 -10 9 -11 8 -5 -6z"/>
<path d="M9740 14040 c-8 -5 -12 -12 -9 -15 4 -3 12 1 19 10 14 17 11 19 -10
5z"/>
<path d="M9534 13799 c0 -13 3 -15 13 -7 7 6 13 12 13 13 0 2 -6 5 -13 8 -7 3
-13 -3 -13 -14z"/>
<path d="M8950 10910 c0 -5 5 -10 11 -10 5 0 7 5 4 10 -3 6 -8 10 -11 10 -2 0
-4 -4 -4 -10z"/>
<path d="M8575 10890 c-3 -5 -1 -10 4 -10 6 0 11 5 11 10 0 6 -2 10 -4 10 -3
0 -8 -4 -11 -10z"/>
<path d="M8230 10771 c0 -6 4 -13 10 -16 6 -3 7 1 4 9 -7 18 -14 21 -14 7z"/>
<path d="M8985 10730 c-3 -5 -13 -6 -23 -3 -9 3 -14 3 -11 -1 4 -4 16 -8 28
-11 11 -2 27 -7 34 -10 6 -4 4 0 -5 8 -10 8 -15 17 -11 20 3 4 4 7 0 7 -3 0
-8 -4 -12 -10z"/>
<path d="M9025 10190 c-3 -6 1 -7 9 -4 18 7 21 14 7 14 -6 0 -13 -4 -16 -10z"/>
<path d="M9360 10190 c-9 -6 -10 -10 -3 -10 6 0 15 5 18 10 8 12 4 12 -15 0z"/>
<path d="M10247 10167 c-3 -8 1 -14 8 -14 7 0 11 6 8 14 -3 7 -6 13 -8 13 -2
0 -5 -6 -8 -13z"/>
<path d="M9140 10136 c0 -2 8 -10 18 -17 15 -13 16 -12 3 4 -13 16 -21 21 -21
13z"/>
<path d="M10520 10090 c6 -11 13 -20 16 -20 2 0 0 9 -6 20 -6 11 -13 20 -16
20 -2 0 0 -9 6 -20z"/>
<path d="M10480 10090 c-9 -6 -10 -10 -3 -10 6 0 15 5 18 10 8 12 4 12 -15 0z"/>
<path d="M10614 10072 c4 -3 14 -7 22 -8 9 -1 13 0 10 4 -4 3 -14 7 -22 8 -9
1 -13 0 -10 -4z"/>
<path d="M7781 9814 c0 -11 3 -14 6 -6 3 7 2 16 -1 19 -3 4 -6 -2 -5 -13z"/>
<path d="M7430 9730 c0 -5 5 -10 10 -10 6 0 10 5 10 10 0 6 -4 10 -10 10 -5 0
-10 -4 -10 -10z"/>
<path d="M7210 9651 c0 -7 -5 -9 -12 -5 -7 5 -8 3 -3 -5 5 -9 10 -10 18 -2 6
6 8 14 4 18 -4 3 -7 1 -7 -6z"/>
<path d="M7055 9461 c-3 -5 -2 -12 3 -15 5 -3 9 1 9 9 0 17 -3 19 -12 6z"/>
<path d="M6994 9415 c-5 -12 -9 -13 -20 -4 -8 7 -17 9 -21 5 -3 -3 0 -6 8 -6
12 0 11 -2 -1 -10 -11 -7 -10 -9 8 -7 20 1 55 37 37 37 -3 0 -8 -7 -11 -15z"/>
<path d="M6876 9392 c-3 -5 1 -9 9 -9 8 0 12 4 9 9 -3 4 -7 8 -9 8 -2 0 -6 -4
-9 -8z"/>
<path d="M11996 8675 c4 -8 8 -15 10 -15 2 0 4 7 4 15 0 8 -4 15 -10 15 -5 0
-7 -7 -4 -15z"/>
<path d="M12085 8570 c3 -5 8 -10 11 -10 2 0 4 5 4 10 0 6 -5 10 -11 10 -5 0
-7 -4 -4 -10z"/>
<path d="M12150 8451 c0 -6 4 -12 8 -15 5 -3 9 1 9 9 0 8 -4 15 -9 15 -4 0 -8
-4 -8 -9z"/>
<path d="M12185 8380 c-3 -6 1 -7 9 -4 18 7 21 14 7 14 -6 0 -13 -4 -16 -10z"/>
<path d="M12195 8339 c-4 -6 -5 -12 -2 -15 2 -3 7 2 10 11 7 17 1 20 -8 4z"/>
<path d="M5819 8314 c-10 -12 -10 -15 2 -12 8 2 13 -3 11 -12 -2 -8 0 -11 4
-7 11 11 14 36 4 42 -4 3 -14 -2 -21 -11z"/>
<path d="M5811 8218 c-14 -23 -14 -23 8 -4 22 20 25 26 13 26 -4 0 -13 -10
-21 -22z"/>
<path d="M5845 7951 c-3 -5 -2 -12 3 -15 5 -3 9 1 9 9 0 17 -3 19 -12 6z"/>
<path d="M12279 7798 c-5 -18 -6 -38 -1 -34 7 8 12 36 6 36 -2 0 -4 -1 -5 -2z"/>
<path d="M5595 7331 c-3 -5 -2 -12 3 -15 5 -3 9 1 9 9 0 17 -3 19 -12 6z"/>
<path d="M5635 6730 c-3 -5 -1 -10 4 -10 6 0 11 5 11 10 0 6 -2 10 -4 10 -3 0
-8 -4 -11 -10z"/>
<path d="M5755 6240 c-3 -6 1 -7 9 -4 18 7 21 14 7 14 -6 0 -13 -4 -16 -10z"/>
<path d="M5829 6113 c-13 -17 -13 -17 6 -3 11 8 22 16 24 17 2 2 0 3 -6 3 -6
0 -17 -8 -24 -17z"/>
<path d="M5895 6050 c3 -5 8 -10 11 -10 2 0 4 5 4 10 0 6 -5 10 -11 10 -5 0
-7 -4 -4 -10z"/>
<path d="M6160 5880 c-8 -5 -12 -12 -9 -15 4 -3 12 1 19 10 14 17 11 19 -10 5z"/>
<path d="M8096 5337 c3 -10 9 -15 12 -12 3 3 0 11 -7 18 -10 9 -11 8 -5 -6z"/>
<path d="M8195 5281 c-3 -5 -2 -12 3 -15 5 -3 9 1 9 9 0 17 -3 19 -12 6z"/>
<path d="M10200 5051 c0 -6 4 -13 10 -16 6 -3 7 1 4 9 -7 18 -14 21 -14 7z"/>
<path d="M10294 5039 c1 -7 16 -13 34 -14 17 -1 29 2 26 7 -3 5 -10 6 -15 3
-5 -4 -9 -1 -9 6 0 9 -3 9 -14 0 -10 -8 -16 -9 -19 -1 -3 6 -5 6 -3 -1z"/>
<path d="M10106 5022 c-3 -5 1 -9 9 -9 8 0 12 4 9 9 -3 4 -7 8 -9 8 -2 0 -6
-4 -9 -8z"/>
<path d="M10557 4983 c-10 -9 -9 -23 1 -23 5 0 9 7 9 15 0 17 -1 18 -10 8z"/>
<path d="M8310 4972 c0 -4 10 -9 22 -9 18 -2 20 0 8 7 -18 12 -30 13 -30 2z"/>
<path d="M9987 4939 c7 -7 15 -10 18 -7 3 3 -2 9 -12 12 -14 6 -15 5 -6 -5z"/>
<path d="M8460 4870 c-9 -6 -10 -10 -3 -10 6 0 15 5 18 10 8 12 4 12 -15 0z"/>
<path d="M9177 4779 c7 -7 15 -10 18 -7 3 3 -2 9 -12 12 -14 6 -15 5 -6 -5z"/>
<path d="M9216 4772 c-2 -4 -1 -14 3 -21 6 -10 10 -9 14 3 6 16 -8 32 -17 18z"/>
<path d="M9250 4729 c0 -5 5 -7 10 -4 6 3 10 8 10 11 0 2 -4 4 -10 4 -5 0 -10
-5 -10 -11z"/>
</g>
</svg>
